<svg xmlns="http://www.w3.org/2000/svg" xmlns:xlink="http://www.w3.org/1999/xlink" id="logo-svg" data-name="Layer 1" viewBox="0 0 40 40">
  <defs>
    <radialGradient id="radial-gradient" cx="19.3111" cy="20.1529" r="20.303" gradientUnits="userSpaceOnUse">
      <stop offset="0" stop-color="#0e90d0"/>
      <stop offset="0.5913" stop-color="#0a6eb6"/>
      <stop offset="1" stop-color="#085ca8"/>
    </radialGradient>
    <radialGradient id="radial-gradient-2" cx="19.3035" cy="20.1495" r="20.3082" xlink:href="#radial-gradient"/>
  </defs>
  <g>
    <g>
      <path d="M35.0039,13.6993l1.8815-2.0039a3.9169,3.9169,0,0,1,.9884-.7563,19.9863,19.9863,0,0,0-6.0933-7.14A16.1112,16.1112,0,0,1,35.0039,13.6993Z" style="fill: url(#radial-gradient)"/>
      <path d="M39.4722,15.2353,34.89,19.9029c-2.0126,1.8935-3.5948.6262-5.07-.271l-9.1-5.7645c-2.8464-1.9693.3937-5.1817,2.7076-3.7295l6.3575,3.7977C29.6419,8.9052,28.13,2.7045,23.7018.3383a20.0227,20.0227,0,0,0-8.62,39.0863c-.0046-.0063-.0127-.01-.0176-.02C11.6054,36.74,9.6433,31.8993,9.6116,26.3508L7.7293,28.3582c-1.1638,1.2223-2.9829,1.5488-3.7479.6811-1.0292-1.3385-.6632-2.3679.4548-3.5053l5.7169-5.6231c1.3411-1.88,3.1666-.39,4.6408.5061l9.0991,5.7639c2.8471,1.97-.3934,5.1852-2.7047,3.73L14.83,26.1134c.15,5.2487,1.785,11.774,6.6743,13.8837V40A20.027,20.027,0,0,0,39.4722,15.2353Z" style="fill: url(#radial-gradient-2)"/>
      
      <path d="M34.89,19.9029c-2.0126,1.8935-3.5948.6262-5.07-.271l-9.1-5.7645a2.0766,2.0766,0,0,1-1.0461-2.29c-1.4621,2.2125,6.6932,9.9509,9.0137,11.53,1.5984,1.0854,3.2545,2.08,4.3625,2.19.7764.0763,1.945-.9722,3.05-2.3661.98-1.2374,4.4007-7.2,4.968-9.9186C40.1486,14.6218,34.89,19.9029,34.89,19.9029Z" style="fill: #eb2227"/>
    </g>
    
  </g>
</svg>